<?xml version="1.0" encoding="utf-8"?>
<!-- Generator: Adobe Illustrator 16.0.4, SVG Export Plug-In . SVG Version: 6.00 Build 0)  -->
<!DOCTYPE svg PUBLIC "-//W3C//DTD SVG 1.1//EN" "http://www.w3.org/Graphics/SVG/1.1/DTD/svg11.dtd">
<svg version="1.1" id="Ebene_1" xmlns="http://www.w3.org/2000/svg" xmlns:xlink="http://www.w3.org/1999/xlink" x="0px" y="0px"
	 width="369.8px" height="57.064px" viewBox="0 0 369.8 57.064" enable-background="new 0 0 369.8 57.064" xml:space="preserve">
<text transform="matrix(1 0 0 1 185.062 15.7263)" fill="#FFFFFF" font-family="'Frutiger-Light'" font-size="7.5037">Eidgenössisches Departement für Verteidigung,</text>
<text transform="matrix(1 0 0 1 185.062 26.0759)" fill="#FFFFFF" font-family="'Frutiger-Light'" font-size="7.5037">Bevölkerungsschutz und Sport VBS</text>
<text transform="matrix(1 0 0 1 185.062 36.4255)" fill="#FFFFFF" font-family="'Frutiger-Bold'" font-size="7.5037">Schweizer Armee</text>
<text transform="matrix(1 0 0 1 37.8716 15.7244)" fill="#FFFFFF" font-family="'Frutiger-Light'" font-size="7.5037">Schweizerische Eidgenossenschaft</text>
<text transform="matrix(1 0 0 1 37.8716 26.075)" fill="#FFFFFF" font-family="'Frutiger-Light'" font-size="7.5037">Confédération suisse</text>
<text transform="matrix(1 0 0 1 37.8716 36.4246)" fill="#FFFFFF" font-family="'Frutiger-Light'" font-size="7.5037">Confederazione Svizzera</text>
<text transform="matrix(1 0 0 1 37.8716 46.7751)" fill="#FFFFFF" font-family="'Frutiger-Light'" font-size="7.5037">Confederaziun svizra</text>
<g>
	<g>
		<path fill="#E30613" d="M29.786,10.259c0,0-3.969-1.737-10.613-1.737h-0.002c-6.645,0-10.614,1.737-10.614,1.737
			s-0.355,7.696,1.151,12.049c2.661,7.65,9.462,9.801,9.462,9.801h0.002h0.002c0,0,6.8-2.149,9.462-9.801
			C30.143,17.955,29.786,10.259,29.786,10.259z"/>
	</g>
	<polygon fill="#FFFFFF" points="26.226,16.894 26.226,21.134 21.278,21.134 21.278,26.081 17.038,26.081 17.038,21.134 
		12.091,21.134 12.091,16.894 17.038,16.894 17.038,11.947 21.277,11.947 21.278,16.894 	"/>
</g>
</svg>
