<svg xmlns="http://www.w3.org/2000/svg" width="14" height="14" viewBox="0 0 14 14"><path fill="#C8C8C8" d="M13.584 11.73l-2.315-2.315c.611-.953.976-2.078.976-3.293-.001-3.381-2.742-6.122-6.123-6.122-3.381 0-6.122 2.741-6.122 6.122 0 3.382 2.741 6.122 6.122 6.122 1.215 0 2.34-.364 3.292-.975l2.314 2.315c.513.513 1.343.513 1.855 0s.514-1.341.001-1.854zm-7.462-1.235c-2.415 0-4.373-1.958-4.373-4.373 0-2.416 1.958-4.373 4.373-4.373 2.416 0 4.374 1.958 4.374 4.373-.001 2.415-1.959 4.373-4.374 4.373z"/></svg>