<?xml version="1.0" encoding="utf-8"?>
<!-- Generator: Adobe Illustrator 16.0.4, SVG Export Plug-In . SVG Version: 6.00 Build 0)  -->
<!DOCTYPE svg PUBLIC "-//W3C//DTD SVG 1.1//EN" "http://www.w3.org/Graphics/SVG/1.1/DTD/svg11.dtd">
<svg version="1.1" id="Ebene_1" xmlns="http://www.w3.org/2000/svg" xmlns:xlink="http://www.w3.org/1999/xlink" x="0px" y="0px"
	 width="14px" height="14px" viewBox="0 0 14 14" enable-background="new 0 0 14 14" xml:space="preserve">
<path fill="#FFFFFF" d="M13.584,11.73l-2.315-2.315c0.611-0.953,0.976-2.078,0.976-3.293C12.244,2.741,9.503,0,6.122,0
	C2.741,0,0,2.741,0,6.122c0,3.382,2.741,6.122,6.122,6.122c1.215,0,2.34-0.364,3.292-0.975l2.314,2.315
	c0.513,0.513,1.343,0.513,1.855,0S14.097,12.243,13.584,11.73z M6.122,10.495c-2.415,0-4.373-1.958-4.373-4.373
	c0-2.416,1.958-4.373,4.373-4.373c2.416,0,4.374,1.958,4.374,4.373C10.495,8.537,8.537,10.495,6.122,10.495z"/>
</svg>
