<?xml version="1.0" encoding="utf-8"?>
<!-- Generator: Adobe Illustrator 16.0.4, SVG Export Plug-In . SVG Version: 6.00 Build 0)  -->
<!DOCTYPE svg PUBLIC "-//W3C//DTD SVG 1.1//EN" "http://www.w3.org/Graphics/SVG/1.1/DTD/svg11.dtd">
<svg version="1.1" id="Ebene_1" xmlns="http://www.w3.org/2000/svg" xmlns:xlink="http://www.w3.org/1999/xlink" x="0px" y="0px"
	 width="40px" height="40px" viewBox="0 0 40 40" enable-background="new 0 0 40 40" xml:space="preserve">
<g>
	<g>
		<path fill="#E30613" d="M35.864,4.97c0,0-5.933-2.597-15.863-2.597h-0.003c-9.932,0-15.864,2.597-15.864,2.597
			s-0.531,11.503,1.72,18.008c3.978,11.435,14.142,14.649,14.142,14.649H20h0.003c0,0,10.163-3.212,14.143-14.649
			C36.397,16.473,35.864,4.97,35.864,4.97z"/>
	</g>
	<polygon fill="#FFFFFF" points="30.543,14.888 30.543,21.224 23.146,21.224 23.146,28.618 16.811,28.618 16.811,21.224 
		9.417,21.224 9.417,14.888 16.811,14.888 16.811,7.493 23.146,7.493 23.146,14.888 	"/>
</g>
</svg>
